<svg xmlns="http://www.w3.org/2000/svg" viewBox="0 0 200 50">
  <path fill="#7AC142" d="M25,0C11.2,0,0,11.2,0,25s11.2,25,25,25s25-11.2,25-25S38.8,0,25,0z M36.5,35.9c-0.9,0.9-2.1,1.4-3.3,1.4 c-1.3,0-2.4-0.5-3.3-1.4l-8.9-8.9c-1.8-1.8-1.8-4.8,0-6.6c0.9-0.9,2.1-1.4,3.3-1.4c1.3,0,2.4,0.5,3.3,1.4l5.6,5.6l5.6-5.6 c0.9-0.9,2.1-1.4,3.3-1.4c1.3,0,2.4,0.5,3.3,1.4c1.8,1.8,1.8,4.8,0,6.6L36.5,35.9z"/>
  <path fill="#404040" d="M82.5,15.8h-7.7v26.7h7.7c8.4,0,14.3-5.9,14.3-13.3C96.8,21.7,90.9,15.8,82.5,15.8z M82.5,37.2h-2.1V21.1h2.1 c6.1,0,8.7,4.1,8.7,8.1C91.2,33.1,88.6,37.2,82.5,37.2z"/>
  <path fill="#404040" d="M119.7,15.8h-5.6v26.7h15.9v-5.3h-10.3V15.8z"/>
  <path fill="#404040" d="M149.9,15.8h-5.6v26.7h15.9v-5.3h-10.3V15.8z"/>
  <path fill="#404040" d="M180.1,15.8h-5.6v26.7h15.9v-5.3h-10.3V15.8z"/>
</svg> 