<svg xmlns="http://www.w3.org/2000/svg" viewBox="0 0 2228.833 2073.333">
  <path fill="#5059C9" d="M1554.637,777.5h575.713c54.391,0,98.483,44.092,98.483,98.483c0,0,0,0,0,0v524.398 c0,199.901-162.051,361.952-361.952,361.952h0h-1.711c-199.901,0.028-361.975-162-362.004-361.901c0-0.017,0-0.034,0-0.052V828.971 C1503.167,800.544,1526.211,777.5,1554.637,777.5L1554.637,777.5z"/>
  <circle fill="#5059C9" cx="1943.75" cy="440.583" r="233.25"/>
  <circle fill="#7B83EB" cx="1218.083" cy="336.917" r="336.917"/>
  <path fill="#7B83EB" d="M1667.323,777.5H717.01c-53.743,1.33-96.257,45.931-95.01,99.676v598.105 c-7.505,322.519,247.657,590.16,570.167,598.053c322.51-7.893,577.671-275.534,570.167-598.053V877.176 C1763.579,823.431,1721.066,778.83,1667.323,777.5z"/>
  <path opacity=".1" d="M1244,777.5v838.145c-0.258,38.435-23.549,72.964-59.09,87.598 c-11.316,4.787-23.478,7.254-35.765,7.257H667.613c-6.738-17.105-12.958-34.21-18.142-51.833 c-18.144-59.477-27.402-121.307-27.472-183.49V877.02c-1.246-53.659,41.198-98.19,94.855-99.52H1244z"/>
  <path opacity=".2" d="M1192.167,777.5v889.978c-0.002,12.287-2.47,24.449-7.257,35.765 c-14.634,35.541-49.163,58.833-87.598,59.09H691.975c-8.812-17.105-17.105-34.21-24.362-51.833 c-7.257-17.623-12.958-34.21-18.142-51.833c-18.144-59.477-27.402-121.307-27.472-183.49V877.02 c-1.246-53.659,41.198-98.19,94.855-99.52H1192.167z"/>
  <path opacity=".2" d="M1192.167,777.5v786.312c-0.002,12.287-2.47,24.449-7.257,35.765 c-14.634,35.541-49.163,58.833-87.598,59.09H716.337c-18.144-59.477-27.402-121.307-27.472-183.49V877.02 c-1.246-53.659,41.198-98.19,94.855-99.52H1192.167z"/>
  <path opacity=".2" d="M1140.333,777.5v786.312c-0.002,12.287-2.47,24.449-7.257,35.765 c-14.634,35.541-49.163,58.833-87.598,59.09H716.337c-18.144-59.477-27.402-121.307-27.472-183.49V877.02 c-1.246-53.659,41.198-98.19,94.855-99.52H1140.333z"/>
  <path fill="#fff" d="M1118.845,673.25H632.488c-47.18,0-85.425,38.244-85.425,85.425v0v655.09 c0,174.947,141.803,316.75,316.75,316.75l0,0h316.75c47.18,0,85.425-38.244,85.425-85.425v0V811.095 C1265.988,735.153,1194.787,673.25,1118.845,673.25z"/>
  <path fill="#103262" d="M1004.167,1031.75h-206.125c-17.624,0-31.875-14.251-31.875-31.875l0,0 c0-17.624,14.251-31.875,31.875-31.875h206.125c17.624,0,31.875,14.251,31.875,31.875l0,0 C1036.042,1017.499,1021.791,1031.75,1004.167,1031.75z"/>
  <path fill="#103262" d="M1004.167,1197.25h-206.125c-17.624,0-31.875-14.251-31.875-31.875l0,0 c0-17.624,14.251-31.875,31.875-31.875h206.125c17.624,0,31.875,14.251,31.875,31.875l0,0 C1036.042,1182.999,1021.791,1197.25,1004.167,1197.25z"/>
</svg> 