<svg xmlns="http://www.w3.org/2000/svg" viewBox="0 0 54 54" fill="none">
  <g clip-path="url(#clip0)">
    <path d="M19.712 34.003a4.502 4.502 0 01-4.5 4.5 4.502 4.502 0 01-4.5-4.5 4.502 4.502 0 014.5-4.5h4.5v4.5z" fill="#E01E5A"/>
    <path d="M21.712 34.003a4.502 4.502 0 014.5-4.5 4.502 4.502 0 014.5 4.5v11.25a4.502 4.502 0 01-4.5 4.5 4.502 4.502 0 01-4.5-4.5v-11.25z" fill="#E01E5A"/>
    <path d="M26.212 19.712a4.502 4.502 0 01-4.5-4.5 4.502 4.502 0 014.5-4.5 4.502 4.502 0 014.5 4.5v4.5h-4.5z" fill="#36C5F0"/>
    <path d="M26.212 21.712a4.502 4.502 0 014.5 4.5 4.502 4.502 0 01-4.5 4.5H15a4.502 4.502 0 01-4.5-4.5 4.502 4.502 0 014.5-4.5h11.212z" fill="#36C5F0"/>
    <path d="M40.503 26.212a4.502 4.502 0 014.5-4.5 4.502 4.502 0 014.5 4.5 4.502 4.502 0 01-4.5 4.5h-4.5v-4.5z" fill="#2EB67D"/>
    <path d="M38.503 26.212a4.502 4.502 0 01-4.5 4.5 4.502 4.502 0 01-4.5-4.5V15a4.502 4.502 0 014.5-4.5 4.502 4.502 0 014.5 4.5v11.212z" fill="#2EB67D"/>
    <path d="M34.003 40.503a4.502 4.502 0 014.5 4.5 4.502 4.502 0 01-4.5 4.5 4.502 4.502 0 01-4.5-4.5v-4.5h4.5z" fill="#ECB22E"/>
    <path d="M34.003 38.503a4.502 4.502 0 01-4.5-4.5 4.502 4.502 0 014.5-4.5h11.25a4.502 4.502 0 014.5 4.5 4.502 4.502 0 01-4.5 4.5H34.003z" fill="#ECB22E"/>
  </g>
  <defs>
    <clipPath id="clip0">
      <path fill="#fff" d="M0 0h54v54H0z"/>
    </clipPath>
  </defs>
</svg> 