<svg xmlns="http://www.w3.org/2000/svg" viewBox="0 0 200 50" fill="#0875E1">
  <path d="M25,0C11.2,0,0,11.2,0,25s11.2,25,25,25s25-11.2,25-25S38.8,0,25,0z M25,35c-5.5,0-10-4.5-10-10s4.5-10,10-10s10,4.5,10,10 S30.5,35,25,35z"/>
  <path d="M82.5,15.8h-7.7v26.7h7.7c8.4,0,14.3-5.9,14.3-13.3C96.8,21.7,90.9,15.8,82.5,15.8z M82.5,37.2h-2.1V21.1h2.1 c6.1,0,8.7,4.1,8.7,8.1C91.2,33.1,88.6,37.2,82.5,37.2z"/>
  <path d="M119.7,15.8h-5.6v26.7h15.9v-5.3h-10.3V15.8z"/>
  <path d="M149.9,15.8h-5.6v26.7h15.9v-5.3h-10.3V15.8z"/>
  <path d="M180.1,15.8h-5.6v26.7h15.9v-5.3h-10.3V15.8z"/>
</svg> 